<svg xmlns="http://www.w3.org/2000/svg" xmlns:xlink="http://www.w3.org/1999/xlink" width="1152" height="587" viewBox="0 0 1152 587">
  <defs>
    <clipPath id="clip-path">
      <rect id="Rectangle_118" data-name="Rectangle 118" width="591" height="587" transform="translate(-0.476 8.645)" fill="#fff"/>
    </clipPath>
    <clipPath id="clip-path-2">
      <rect id="Rectangle_118-2" data-name="Rectangle 118" width="591" height="587" fill="#fff"/>
    </clipPath>
  </defs>
  <g id="Group_744" data-name="Group 744" transform="translate(-139 -7809)">
    <g id="Group_720" data-name="Group 720" transform="translate(26.5 -8.644)">
      <g id="Mask_Group_13" data-name="Mask Group 13" transform="translate(673.976 7809)" clip-path="url(#clip-path)">
        <path id="_1000_F_209900544_C7P7rrfxaSFNn29qHnn4teqH7SvXPCwS" data-name="1000_F_209900544_C7P7rrfxaSFNn29qHnn4teqH7SvXPCwS" d="M544.909,725.279c17,0,37.8-11.279,45.365-25.481L749.04,425.766c8.507-15.038,8.507-37.6,0-52.634L590.274,99.1c-7.56-14.2-28.364-25.481-45.365-25.481H92.693c-16.055,0-36.8,11.278-45.3,25.481L-111.48,373.132c-7.519,15.038-7.519,37.6,0,52.634L47.4,699.8c8.493,14.2,29.241,25.481,45.3,25.481Z" transform="translate(-164.282 -96.976)"/>
        <path id="_1000_F_209900544_C7P7rrfxaSFNn29qHnn4teqH7SvXPCwS-2" data-name="1000_F_209900544_C7P7rrfxaSFNn29qHnn4teqH7SvXPCwS" d="M544.909,725.279c17,0,37.8-11.279,45.365-25.481L749.04,425.766c8.507-15.038,8.507-37.6,0-52.634L590.274,99.1c-7.56-14.2-28.364-25.481-45.365-25.481H92.693c-16.055,0-36.8,11.278-45.3,25.481L-111.48,373.132c-7.519,15.038-7.519,37.6,0,52.634L47.4,699.8c8.493,14.2,29.241,25.481,45.3,25.481Z" transform="translate(-193.781 -97.476)" fill="none" stroke="#fff" stroke-linejoin="round" stroke-width="3"/>
        <path id="_1000_F_209900544_C7P7rrfxaSFNn29qHnn4teqH7SvXPCwS-3" data-name="1000_F_209900544_C7P7rrfxaSFNn29qHnn4teqH7SvXPCwS" d="M544.909,725.279c17,0,37.8-11.279,45.365-25.481L749.04,425.766c8.507-15.038,8.507-37.6,0-52.634L590.274,99.1c-7.56-14.2-28.364-25.481-45.365-25.481H92.693c-16.055,0-36.8,11.278-45.3,25.481L-111.48,373.132c-7.519,15.038-7.519,37.6,0,52.634L47.4,699.8c8.493,14.2,29.241,25.481,45.3,25.481Z" transform="translate(-220.33 -97.476)" fill="none" stroke="#fff" stroke-linejoin="round" stroke-width="2"/>
        <path id="_1000_F_209900544_C7P7rrfxaSFNn29qHnn4teqH7SvXPCwS-4" data-name="1000_F_209900544_C7P7rrfxaSFNn29qHnn4teqH7SvXPCwS" d="M544.909,725.279c17,0,37.8-11.279,45.365-25.481L749.04,425.766c8.507-15.038,8.507-37.6,0-52.634L590.274,99.1c-7.56-14.2-28.364-25.481-45.365-25.481H92.693c-16.055,0-36.8,11.278-45.3,25.481L-111.48,373.132c-7.519,15.038-7.519,37.6,0,52.634L47.4,699.8c8.493,14.2,29.241,25.481,45.3,25.481Z" transform="translate(-246.879 -97.476)" fill="none" stroke="#fff" stroke-linejoin="round" stroke-width="1"/>
        <path id="_1000_F_209900544_C7P7rrfxaSFNn29qHnn4teqH7SvXPCwS-5" data-name="1000_F_209900544_C7P7rrfxaSFNn29qHnn4teqH7SvXPCwS" d="M544.909,725.279c17,0,37.8-11.279,45.365-25.481L749.04,425.766c8.507-15.038,8.507-37.6,0-52.634L590.274,99.1c-7.56-14.2-28.364-25.481-45.365-25.481H92.693c-16.055,0-36.8,11.278-45.3,25.481L-111.48,373.132c-7.519,15.038-7.519,37.6,0,52.634L47.4,699.8c8.493,14.2,29.241,25.481,45.3,25.481Z" transform="translate(-275.64 -97.476)" fill="none" stroke="#fff" stroke-linejoin="round" stroke-width="0.5"/>
      </g>
    </g>
    <g id="Group_721" data-name="Group 721" transform="translate(139 7809)">
      <g id="Mask_Group_13-2" data-name="Mask Group 13" transform="translate(0 0)" clip-path="url(#clip-path-2)">
        <path id="_1000_F_209900544_C7P7rrfxaSFNn29qHnn4teqH7SvXPCwS-6" data-name="1000_F_209900544_C7P7rrfxaSFNn29qHnn4teqH7SvXPCwS" d="M93.393,725.279c-17,0-37.8-11.279-45.365-25.481L-110.738,425.766c-8.507-15.038-8.507-37.6,0-52.634L48.027,99.1C55.588,84.9,76.391,73.62,93.393,73.62H545.609c16.055,0,36.8,11.278,45.3,25.481L749.781,373.132c7.519,15.038,7.519,37.6,0,52.634L590.9,699.8c-8.493,14.2-29.241,25.481-45.3,25.481Z" transform="translate(116.505 -105.62)"/>
        <path id="_1000_F_209900544_C7P7rrfxaSFNn29qHnn4teqH7SvXPCwS-7" data-name="1000_F_209900544_C7P7rrfxaSFNn29qHnn4teqH7SvXPCwS" d="M93.393,725.279c-17,0-37.8-11.279-45.365-25.481L-110.738,425.766c-8.507-15.038-8.507-37.6,0-52.634L48.027,99.1C55.588,84.9,76.391,73.62,93.393,73.62H545.609c16.055,0,36.8,11.278,45.3,25.481L749.781,373.132c7.519,15.038,7.519,37.6,0,52.634L590.9,699.8c-8.493,14.2-29.241,25.481-45.3,25.481Z" transform="translate(146.004 -106.12)" fill="none" stroke="#fff" stroke-linejoin="round" stroke-width="3"/>
        <path id="_1000_F_209900544_C7P7rrfxaSFNn29qHnn4teqH7SvXPCwS-8" data-name="1000_F_209900544_C7P7rrfxaSFNn29qHnn4teqH7SvXPCwS" d="M93.393,725.279c-17,0-37.8-11.279-45.365-25.481L-110.738,425.766c-8.507-15.038-8.507-37.6,0-52.634L48.027,99.1C55.588,84.9,76.391,73.62,93.393,73.62H545.609c16.055,0,36.8,11.278,45.3,25.481L749.781,373.132c7.519,15.038,7.519,37.6,0,52.634L590.9,699.8c-8.493,14.2-29.241,25.481-45.3,25.481Z" transform="translate(172.553 -106.12)" fill="none" stroke="#fff" stroke-linejoin="round" stroke-width="2"/>
        <path id="_1000_F_209900544_C7P7rrfxaSFNn29qHnn4teqH7SvXPCwS-9" data-name="1000_F_209900544_C7P7rrfxaSFNn29qHnn4teqH7SvXPCwS" d="M93.393,725.279c-17,0-37.8-11.279-45.365-25.481L-110.738,425.766c-8.507-15.038-8.507-37.6,0-52.634L48.027,99.1C55.588,84.9,76.391,73.62,93.393,73.62H545.609c16.055,0,36.8,11.278,45.3,25.481L749.781,373.132c7.519,15.038,7.519,37.6,0,52.634L590.9,699.8c-8.493,14.2-29.241,25.481-45.3,25.481Z" transform="translate(199.101 -106.12)" fill="none" stroke="#fff" stroke-linejoin="round" stroke-width="1"/>
        <path id="_1000_F_209900544_C7P7rrfxaSFNn29qHnn4teqH7SvXPCwS-10" data-name="1000_F_209900544_C7P7rrfxaSFNn29qHnn4teqH7SvXPCwS" d="M93.393,725.279c-17,0-37.8-11.279-45.365-25.481L-110.738,425.766c-8.507-15.038-8.507-37.6,0-52.634L48.027,99.1C55.588,84.9,76.391,73.62,93.393,73.62H545.609c16.055,0,36.8,11.278,45.3,25.481L749.781,373.132c7.519,15.038,7.519,37.6,0,52.634L590.9,699.8c-8.493,14.2-29.241,25.481-45.3,25.481Z" transform="translate(227.863 -106.12)" fill="none" stroke="#fff" stroke-linejoin="round" stroke-width="0.5"/>
      </g>
    </g>
  </g>
</svg>
