<svg xmlns="http://www.w3.org/2000/svg" width="51" height="51" viewBox="0 0 51 51">
  <g id="maps-and-flags" transform="translate(-52.969 16.296)">
    <g id="Group_711" data-name="Group 711" transform="translate(68.969 -3.296)">
      <path id="Path_233" data-name="Path 233" d="M79.989,0a9.427,9.427,0,0,0-9.416,9.416c0,6.444,8.427,15.9,8.786,16.3a.848.848,0,0,0,1.262,0c.359-.4,8.786-9.859,8.786-16.3A9.427,9.427,0,0,0,79.989,0Zm0,14.154a4.738,4.738,0,1,1,4.738-4.738A4.743,4.743,0,0,1,79.989,14.154Z" transform="translate(-70.573)" fill="none" stroke="#fff" stroke-width="1.2"/>
    </g>
    <g id="Ellipse_23" data-name="Ellipse 23" transform="translate(52.969 -16.296)" fill="none" stroke="#fff" stroke-width="1">
      <circle cx="25.5" cy="25.5" r="25.5" stroke="none"/>
      <circle cx="25.5" cy="25.5" r="25" fill="none"/>
    </g>
  </g>
</svg>
