<svg class="mobile-menu-logo" xmlns="http://www.w3.org/2000/svg" width="207.024" height="47.107" viewBox="0 0 207.024 47.107">
  <path id="new_logo_black" d="M81.254,12.464q-.537,1.008-1.512,3.194a23.879,23.879,0,0,0-1.077,2.959.4.4,0,0,1-.269.269q-.437.067-.437-.4a2.1,2.1,0,0,1,.235-.623,1.925,1.925,0,0,0,.235-.756.945.945,0,0,0-.136-.471,6.424,6.424,0,0,0-5.547-2.018c-.291.024-.459.259-.5.707,0,.337-.011.705-.033,1.11-.336,6.005-.5,10.533-.5,12.909q0,3.833.3,7.094.066.74.672.84,1.21.2,1.21.572,0,.437-.8.437h-.435a21.773,21.773,0,0,0-5.693,0q-1.339.133-1.339-.337a.74.74,0,0,1,.165-.371c.661-.044,1.035-.078,1.124-.1a1.03,1.03,0,0,0,.627-.91q.1-1.615.3-4.68.37-5.218.37-8.854c0-2.828-.09-5.566-.269-7.54q-.068-.674-.338-.842a2.1,2.1,0,0,0-1.013-.168,12.865,12.865,0,0,0-5.3,1.614,2.233,2.233,0,0,0-.879,1.042,3.41,3.41,0,0,1-.708,1.042q-.3.1-.371-.236a.862.862,0,0,1,.033-.538q1.143-2.823,1.883-5.009.2-.571.538-.571c.135,0,.2.079.2.235a3.014,3.014,0,0,0,.1.639,2.311,2.311,0,0,0,1.345.47,51.6,51.6,0,0,0,7.968.639,55.839,55.839,0,0,0,7.5-.538,2.106,2.106,0,0,0,1.716-.975c.134-.269.3-.369.5-.3C81.344,12.06,81.39,12.217,81.254,12.464Zm42.683,9.681a7.29,7.29,0,0,1-1.385,4.606,9.126,9.126,0,0,1-7.6,3.665,10.731,10.731,0,0,1-2.466-.3,4.431,4.431,0,0,1-.727-.285,2.312,2.312,0,0,0-.795-.253c-.293,0-.438.214-.438.639A33.447,33.447,0,0,0,111,36.6q.136.706,1.528.976a12.855,12.855,0,0,0,2.071.168,4.231,4.231,0,0,0,1.7-.269q1.054-.4,1.054-1.176a4.664,4.664,0,0,0-.134-.639q-.135-.4-.033-.539a.253.253,0,0,1,.437-.033,1.181,1.181,0,0,1,.437.941,2.107,2.107,0,0,1-1.344,1.916,6.533,6.533,0,0,1-2.421.437,19.368,19.368,0,0,1-3.025-.353,19.3,19.3,0,0,0-3.027-.354,7.437,7.437,0,0,0-1.277.111,10.235,10.235,0,0,0-1.21.336,3.9,3.9,0,0,1-1.244.259.327.327,0,0,1-.37-.37q0-.3.672-.472c.269-.045.527-.09.773-.135.4-.134.617-.348.639-.64a107.6,107.6,0,0,0,.5-10.751q0-5.023-.335-9.774a2.686,2.686,0,0,0-.269-1.079,4.8,4.8,0,0,0-.471-.236,12.869,12.869,0,0,1-1.48-.641,4.4,4.4,0,0,1-1.547-1.652.56.56,0,0,1-.1-.437c.021-.247.146-.371.369-.371q.168,0,.774,1.042,1.041,1.849,4.874,1.614,5.514-.4,7.43-.572a6.972,6.972,0,0,1,6.892,3.933A8.406,8.406,0,0,1,123.937,22.145Zm-4.236-.067a8.665,8.665,0,0,0-1.916-5.815,4.741,4.741,0,0,0-3.832-1.547,13.321,13.321,0,0,0-2.455.269.824.824,0,0,0-.6.806q0,1.984-.184,5.916t-.185,5.917q0,1.077,1.747,1.547a7.574,7.574,0,0,0,2.623.269,4.152,4.152,0,0,0,2.455-1.109,7.986,7.986,0,0,0,2.353-6.254Zm-17.135-1.11a12.906,12.906,0,0,1-1.412,12,10.688,10.688,0,0,1-9.244,5.177,13,13,0,0,1-3.161-.4A11.261,11.261,0,0,1,83.067,34.3a11.817,11.817,0,0,1-3.026-5.934,15.076,15.076,0,0,1-.236-2.723,12.075,12.075,0,0,1,5.481-10.489,10.37,10.37,0,0,1,6.051-1.815,11.159,11.159,0,0,1,5.48,1.412,12.2,12.2,0,0,1,5.748,6.219Zm-3.227,4.1A13.427,13.427,0,0,0,96.716,16.4,6.494,6.494,0,0,0,91,13.909q-3.731.2-5.647,4.337a17.578,17.578,0,0,0-1.48,7.463,15.736,15.736,0,0,0,2.656,9.414,6.1,6.1,0,0,0,2.555,2.017,6.188,6.188,0,0,0,3.227.572,6.271,6.271,0,0,0,4.908-3.665,18.89,18.89,0,0,0,2.118-8.977Zm81.589-4.751a12.894,12.894,0,0,1-1.411,12,10.683,10.683,0,0,1-9.24,5.175,12.972,12.972,0,0,1-3.159-.4,11.255,11.255,0,0,1-5.678-3.444,11.812,11.812,0,0,1-3.025-5.931,15.072,15.072,0,0,1-.235-2.722,12.071,12.071,0,0,1,5.478-10.484,10.364,10.364,0,0,1,6.048-1.814,11.156,11.156,0,0,1,5.478,1.411,12.2,12.2,0,0,1,5.745,6.216Zm-3.226,4.1a13.423,13.423,0,0,0-2.62-8.669,6.488,6.488,0,0,0-5.713-2.487q-3.729.2-5.644,4.335a17.571,17.571,0,0,0-1.479,7.46,16.814,16.814,0,0,0,1.733,7.912,1.3,1.3,0,0,1,.8-.971l2.188-1.024a1.61,1.61,0,0,1,2.241,1.05l.613,2.337c.381,1.374-1.113,2.205-2.385,1.444,0,0-.813-.552-1.055-.665-.271-.127-1.186-.385-1.186-.385-.035-.012-.066-.028-.1-.042a6.141,6.141,0,0,0,10.5-1.323,18.872,18.872,0,0,0,2.117-8.972Zm-25.185-8.433a13.365,13.365,0,0,1,4.3,9.946,11.586,11.586,0,0,1-3.831,8.9,10.771,10.771,0,0,1-7.594,2.789q-1.277,0-3.326-.168-2.454-.2-3.294-.236-4.03-.168-4.871,1.344c-.382.673-.639,1.008-.774,1.008a.332.332,0,0,1-.369-.336.562.562,0,0,1,.1-.438,4.088,4.088,0,0,1,1.546-1.647,9.273,9.273,0,0,1,1.479-.638q.706-.268.806-1.377.3-3.831.3-10.384,0-5.779-.269-9.207a1.306,1.306,0,0,0-.773-1.277,15.879,15.879,0,0,1-1.478-.638,4.388,4.388,0,0,1-1.546-1.647.557.557,0,0,1-.1-.436q.033-.369.37-.37.168,0,.773,1.041.907,1.581,4.57,1.345,5.074-.337,5.645-.337,5.51,0,8.332,2.756Zm-.134,9.609a16.933,16.933,0,0,0-1.612-7.863,6.493,6.493,0,0,0-6.418-3.931l-1.445.067q-1.68.068-1.715.84l-.1,4.267q-.133,5.679-.134,8.1,0,5.713.3,8.636a1.246,1.246,0,0,0,1.108,1.176,24.887,24.887,0,0,0,3.159.068,5.482,5.482,0,0,0,3.763-1.781q3.092-3.025,3.091-9.577Zm56.234-2.486c-.113,0-.235.134-.37.4-.112.18-.213.358-.3.538a2.054,2.054,0,0,1-1.949.739,29.987,29.987,0,0,1-4.133-.907,15.957,15.957,0,0,0-3.831-.672,4.461,4.461,0,0,0-4.267,2.99q-.2.572.367.572a.181.181,0,0,0,.2-.135,3.416,3.416,0,0,1,1.739-2.016,2.561,2.561,0,0,1,1.037-.3,3.667,3.667,0,0,1,1.907.773,5.192,5.192,0,0,1,2.14,4.638,13.538,13.538,0,0,1-.168,2.015q-1.311,4.1-4.166,5.04a5.8,5.8,0,0,1-1.849.3,6.752,6.752,0,0,1-5.452-2.882q-.052-.066-.1-.137c-.438-.674-2.212-3.048-2.212-8.911a15.231,15.231,0,0,1,1.414-6.821,8.6,8.6,0,0,1,2.711-3.192,6.414,6.414,0,0,1,3.822-1.243,7.74,7.74,0,0,1,4.512,1.849,11.666,11.666,0,0,1,3.3,3.662.27.27,0,0,0,.268.134q.337,0,.337-.3a.451.451,0,0,0-.1-.269A5.823,5.823,0,0,1,203,16.556q-.168-3.561,1.209-4.4.337-.2.337-.4,0-.3-.639-.2-.471.068-.841.874-.066.168-.4,1.243a.845.845,0,0,1-.773.605,1.7,1.7,0,0,1-.537-.1,20.064,20.064,0,0,0-6.317-.806,6.306,6.306,0,0,0-1.277.1,10.567,10.567,0,0,0-6.167,2.419,11.367,11.367,0,0,0-3.779,5.511,14.332,14.332,0,0,0-.673,4.3,12.452,12.452,0,0,0,3.159,8.435,9.61,9.61,0,0,0,1.63,1.361,12.317,12.317,0,0,0,1.865,1.125,14.025,14.025,0,0,0,5.678,1.076,11.421,11.421,0,0,0,6.653-1.815,6.789,6.789,0,0,0,3.025-5.947,5.888,5.888,0,0,0-.4-2.319,16.986,16.986,0,0,1-.84-2.116c0-.2.123-.28.37-.236a9.481,9.481,0,0,0,1.747.2,3.315,3.315,0,0,0,2.554-.907,1.713,1.713,0,0,0,.538-.941.445.445,0,0,0-.5-.5Zm-36.508,6.7a1.557,1.557,0,0,0-.165-2.114c-.577-.362-1.44,0-1.926.8a1.557,1.557,0,0,0,.165,2.114c.577.362,1.44,0,1.926-.8ZM168.539,26.1c-.647-.212-1.422.336-1.73,1.226a1.5,1.5,0,0,0,.614,1.995c.647.212,1.422-.336,1.73-1.226a1.5,1.5,0,0,0-.614-1.995Zm2.231,5.7a1.367,1.367,0,0,0-.174,1.873,1.333,1.333,0,0,0,1.83-.344,1.367,1.367,0,0,0,.174-1.873,1.333,1.333,0,0,0-1.83.344ZM165.227,28c-.617-.081-1.212.515-1.328,1.332a1.333,1.333,0,0,0,.906,1.627c.617.081,1.212-.515,1.329-1.332A1.334,1.334,0,0,0,165.227,28ZM8.661,22.032a18.791,18.791,0,0,1,2.613-9.579.213.213,0,0,0,.01-.2l-.212-.451-.055-.116a.216.216,0,0,0-.379-.019A19.84,19.84,0,0,0,16.947,38.81a.217.217,0,0,0,.3-.068q.147-.231.268-.458A.214.214,0,0,0,17.441,38,18.953,18.953,0,0,1,8.661,22.032ZM32.713,2.741a.215.215,0,0,0-.259.276l.2.592a.213.213,0,0,0,.146.136A19.02,19.02,0,0,1,46.778,22.032a18.8,18.8,0,0,1-3.132,10.409.21.21,0,0,0,0,.232,3.611,3.611,0,0,1,.264.486.216.216,0,0,0,.376.034,19.744,19.744,0,0,0,3.444-11.161A19.971,19.971,0,0,0,32.713,2.741ZM31.8,40.565a19.183,19.183,0,0,1-9.57-.362.215.215,0,0,0-.259.119q-.09.2-.186.394l-.007.015-.007.015-.008.015-.008.014v0a.214.214,0,0,0,.124.309,20.119,20.119,0,0,0,9.969.439.215.215,0,0,0,.169-.224,1.787,1.787,0,0,1,.039-.485.213.213,0,0,0-.255-.249ZM21.02,35.9a1.618,1.618,0,0,0-.5-.14.365.365,0,0,0-.416.33c-.006.07-.012.141-.017.21a3.846,3.846,0,0,1-.079.58A5.988,5.988,0,0,1,17.8,40.664c-.261.185-.051.659.239.523a5.781,5.781,0,0,0,3.09-5.094v-.01a.216.216,0,0,0-.11-.18ZM27.44,22.3a.45.45,0,0,0-.282.044,2.55,2.55,0,0,1-2.838-.186.023.023,0,0,0-.034.03,1.933,1.933,0,0,0,2.135.836,3.657,3.657,0,0,0,1.275-.456c.153-.087-.026-.2-.121-.233a1,1,0,0,0-.135-.034Zm.6-1.971a.136.136,0,0,1,.057-.058.41.41,0,0,1,.229-.042.136.136,0,0,0,.119-.217c-.388-.514-1.418-1.294-2.279-.54a8.058,8.058,0,0,0-.855,1,.136.136,0,0,0,.136.227l.149-.046a.136.136,0,0,1,.109.012c.285.163,1.7.89,2.336-.336ZM20.71,34.235h.012l-.025,0h0Zm.454-.148.006,0-.03.019.02-.012Zm.85-.054a1.854,1.854,0,0,1-.544.344,2.5,2.5,0,0,1-.565.146,2.664,2.664,0,0,1-1.02-.029,3.168,3.168,0,0,1-1.4-.829c-.428-.394-.811-.834-1.235-1.231-.11-.1-.222-.2-.339-.3-.057-.047-.115-.091-.173-.136l-.019-.014-.048-.035-.084-.058c-.235-.159-.487-.294-.73-.44a8.155,8.155,0,0,1-1.194-.822,2.6,2.6,0,0,1-.712-.967,3.218,3.218,0,0,1-.195-1.381A8.277,8.277,0,0,1,13.9,27.1c.022-.116.049-.232.082-.346.05-.17.105-.338.166-.505A11.95,11.95,0,0,1,15.09,24.3a16.907,16.907,0,0,1,.943-1.433c.139-.19.551-.764.583-.837a1.784,1.784,0,0,1-.183.078h0a4.869,4.869,0,0,1-2.462-.052,2.953,2.953,0,0,1-1.5-.942,1.46,1.46,0,0,1-.026-1.886,2.781,2.781,0,0,1,1.381-.743c.4-.106.81-.162,1.216-.23l.529-.089s-.065-.265-.088-.348-.048-.169-.073-.253l-.039-.127v0l-.019-.059c-.133-.409-.282-.812-.437-1.213-.637-1.648-1.373-3.258-2.128-4.855-.4-.848-.807-1.694-1.229-2.532-.053-.106-.079-.31.031-.4l.015-.012a4.139,4.139,0,0,1,.359-.264q.4-.285.8-.557,1.365-.921,2.8-1.736a40.366,40.366,0,0,1,3.913-1.96,31.257,31.257,0,0,1,4.714-1.631A22.013,22.013,0,0,1,29.375,1.5a.663.663,0,0,1,.593.409l.006.018c.153.4.275.824.414,1.233q.442,1.306.9,2.608.562,1.6,1.15,3.2c.369,1,.748,1.988,1.158,2.967l.222.1a15.9,15.9,0,0,1,1.56-.481c1.614-.4,2.62-.3,3.076.293a1.051,1.051,0,0,1,.163,1.009c-.24.778-1.234,1.574-2.952,2.365q-.347.16-.734.32v0q.59.548,1.227,1.044l.055.042,0,0h0l.1.08.216.161q.224.164.455.321c.316.214.64.416.975.6a.268.268,0,0,1,.07.056c.4.323-1.874.661-2.066.323-.15-.262.3-.616.511-.761v0q-.129-.085-.256-.173a18.757,18.757,0,0,1-1.61-1.259h0a.539.539,0,0,0-.542-.1,68.607,68.607,0,0,1-9.363,2.546l-.026,0a20.889,20.889,0,0,0-3.571.881,9.556,9.556,0,0,0-2.716,1.379c-.089.069-.216.18-.366.31a1.64,1.64,0,0,0-.307.355,5.537,5.537,0,0,0-.764,2.046,7.569,7.569,0,0,0-.095.978c-.01.319.026,1.171.051,1.686a.128.128,0,0,1-.235.075,3.728,3.728,0,0,1-.523-2.335h0q-.17.268-.33.542A10.68,10.68,0,0,0,14.7,26.9h0c-.024.1-.045.206-.062.31a4.286,4.286,0,0,0,.116,2.444,2.239,2.239,0,0,0,.112.2,2.984,2.984,0,0,0,.729.77l.04.03.01.009.038.026.121.086q.13.09.264.175c.19.122.384.238.579.353.223.132.45.257.662.407a6.325,6.325,0,0,1,.648.53c.38.353.726.74,1.1,1.1.087.085.176.168.267.248q.07.061.141.12l.071.057.055.042a2.723,2.723,0,0,0,.562.325l.053.021-.012-.005h0l.067.022q.082.025.165.043h0l-.026,0,.035.006.018,0,.076.01.058.005H20.7l-.033,0,.037,0h0c.026,0,.072-.007.016,0l.087-.01h0c.049-.01.1-.021.147-.034l.069-.025.042-.021c.025-.013.049-.027.073-.042-.024.015,0,0,.019-.011l0,0,.024-.016-.018.011.033-.024a1.638,1.638,0,0,0,.177-.156c.03-.03.058-.061.085-.093l.015-.019.039-.05a3.026,3.026,0,0,0,.5-1.173c.007-.032.013-.064.019-.1a5.771,5.771,0,0,0,.09-1.03,8.808,8.808,0,0,0-.1-1.278,13.141,13.141,0,0,0-.317-1.524c-.161-.605-.358-1.2-.578-1.787-.261-.7-.556-1.379-.873-2.052a9,9,0,0,1-.723-2.123A22.749,22.749,0,0,1,21.61,26c.251.607.48,1.224.676,1.851a15.422,15.422,0,0,1,.414,1.6,10.528,10.528,0,0,1,.184,1.35,7.04,7.04,0,0,1-.008,1.115,4.867,4.867,0,0,1-.173.928,3.041,3.041,0,0,1-.287.678A2.229,2.229,0,0,1,22.014,34.033Zm-.236-17.647q-.632.3-1.2.576a6.024,6.024,0,0,1-1.262.454l-1.4.333s2.024-.377,2.758-.525l.494-.1.261-.054c.04-.008.08-.02.121-.025h-.005l.021,0q.486-.1.971-.208.9-.2,1.789-.406,1.569-.37,3.125-.791c1.276-.347,2.548-.713,3.81-1.106.756-.235,1.51-.48,2.25-.76l.091-.035s-.332-.689-.622-1.325h0a55.858,55.858,0,0,0-11.2,3.979Zm-6.2-3.257q1.463-.822,2.972-1.57a.019.019,0,0,1,.018.034q-1.466.89-2.872,1.85a.035.035,0,0,0,.037.06q1.456-.817,2.957-1.561a.019.019,0,0,1,.018.034q-1.459.886-2.857,1.84a.036.036,0,0,0,.038.061q1.448-.812,2.942-1.552a.019.019,0,0,1,.018.034q-1.452.881-2.843,1.831a.037.037,0,0,0,.039.063q1.441-.808,2.928-1.544a.019.019,0,0,1,.018.034q-1.454.882-2.847,1.834a.008.008,0,0,0,.008.014c.919-.5,2.22-1.178,3.8-1.921A60.939,60.939,0,0,1,31.445,8.516v0q-.553-1.507-1.08-3.024-.435-1.248-.857-2.5l-.143-.426a.245.245,0,0,0-.242-.167,19.614,19.614,0,0,0-2.175.217,23.4,23.4,0,0,0-2.847.622,32.589,32.589,0,0,0-4.595,1.695,41.184,41.184,0,0,0-3.771,1.951q-.731.426-1.445.881-.3.189-.589.383l-.146.1-.023.015-.036.025-.03.02q1.6-.907,3.249-1.725a.019.019,0,0,1,.018.034q-1.627.988-3.179,2.06a.019.019,0,0,0,.021.032q1.612-.917,3.282-1.743A.019.019,0,0,1,16.875,7q-1.611.978-3.149,2.039a.023.023,0,0,0,.024.038q1.6-.907,3.246-1.727a.019.019,0,0,1,.018.034q-1.6.969-3.119,2.019a.024.024,0,0,0,.025.04q1.581-.9,3.216-1.71a.019.019,0,0,1,.018.034q-1.583.961-3.095,2a.025.025,0,0,0,.027.042q1.569-.89,3.191-1.7a.019.019,0,0,1,.018.034q-1.568.952-3.066,1.984a.026.026,0,0,0,.028.044q1.554-.881,3.161-1.678a.019.019,0,0,1,.018.034q-1.552.943-3.036,1.963a.028.028,0,0,0,.03.047q1.539-.871,3.13-1.661a.019.019,0,0,1,.018.034q-1.538.934-3.01,1.945a.029.029,0,0,0,.031.049q1.526-.862,3.1-1.645a.019.019,0,0,1,.018.034q-1.527.927-2.987,1.93a.03.03,0,0,0,.031.051q1.515-.855,3.079-1.632a.019.019,0,0,1,.018.034q-1.515.92-2.965,1.915a.031.031,0,0,0,.033.053q1.5-.848,3.056-1.618A.019.019,0,0,1,18,10.06q-1.5.914-2.946,1.9a.032.032,0,0,0,.034.054q1.493-.842,3.035-1.606a.019.019,0,0,1,.018.034q-1.492.906-2.92,1.884a.033.033,0,0,0,.035.056q1.48-.833,3.008-1.591a.019.019,0,0,1,.018.034q-1.484.9-2.906,1.874a.034.034,0,0,0,.036.057q1.473-.828,2.993-1.582a.019.019,0,0,1,.018.034q-1.473.895-2.885,1.86a.035.035,0,0,0,.037.059Zm-1.8,6.178q.905-.283,1.8-.593l-.247.041-.306.05-.137.024c-.03.005-.157.016-.046.008h0a1.438,1.438,0,0,0-.378.1q-.355.148-.712.292a.041.041,0,0,0,.027.077Zm1.814,1.826q.939-.3,1.87-.625h0c.249-.211.491-.41.67-.538a10.91,10.91,0,0,1,2.744-1.352,21.294,21.294,0,0,1,3.689-.91h0a56.131,56.131,0,0,0,10.7-3.106c2.027-.919,2.527-1.6,2.645-1.932a.386.386,0,0,0-.009-.355l-.024-.021v-.01c-.239-.322-1.108-.334-2.324-.032-.617.153-1.57.49-1.6.5v0l.332.689h0c.025-.008,1-.308,1.284-.071.05.044.1.121.042.184l-.007.006a1.179,1.179,0,0,1-.36.219c-.22.106-2.842,1.046-3.666,1.3q-1.837.56-3.694,1.057-1.563.418-3.139.781-1.912.444-3.838.826l-.518.1-.2.039-.315.061-.254.049-.255.049-.292.055-.213.04-.323.06-.175.032-.354.064-.135.024-.39.07L17.4,18.4l-.435.076h0l-.429.074-.057.01-.467.079h0q-1.178.521-2.378,1a.026.026,0,0,0,.017.049q1.536-.47,3.052-1.018a.016.016,0,0,1,.012.03q-1.528.69-3.1,1.3a.016.016,0,0,0,.01.031q1.66-.5,3.3-1.092a.016.016,0,0,1,.012.03q-1.529.691-3.1,1.3a.016.016,0,1,0,.01.031q1.66-.5,3.3-1.093a.016.016,0,0,1,.012.03q-1.53.691-3.1,1.305a.016.016,0,1,0,.01.031q1.661-.5,3.3-1.093a.016.016,0,0,1,.012.03Q16,20.141,14.586,20.7a.029.029,0,0,0,.02.055q1.5-.461,2.984-1a.016.016,0,0,1,.012.03q-1.259.569-2.545,1.085a.04.04,0,0,0,.027.075q1.392-.434,2.767-.932a.015.015,0,0,1,.011.027q-1.14.516-2.3.989a.052.052,0,1,0,.035.1Zm1.2-.049h0l.464-.4q-.593.258-1.19.507a.065.065,0,0,0,.044.121c.228-.074.455-.151.682-.227ZM34.65,37.221c-.074-.213,1.024-.414,1.038-.722.021-.468-1.209-.164-1.23-.4-.018-.207,1.149-.195,1.2-.34.121-.351-.731-.51-.908-.539a5.955,5.955,0,0,0-1.941-.248c-.476.148-.5.666-.531,1.1-.055.736.148,2.327.9,2.728.706.376,2.1-.731,2.548-1.2.889-.933-1.02-.218-1.075-.377Zm6.756-3.455a4.287,4.287,0,0,0-2.42.922c-.97.989.92.24.975.554.032.18-1.059.283-1.1.588-.046.357.919.272.993.443.175.4-.908.069-1.035.213-.256.288.624.727.816.814a4.379,4.379,0,0,0,1.636.41c.576.017.68-.223.834-.768a3.884,3.884,0,0,0,.114-1.651c-.056-.366-.284-1.589-.815-1.526Zm-3.848,1.216-.026-.094s-.242-1.043-.259-1.107l0-.009c-.011-.058-.1-.115-.145-.14a.862.862,0,0,0-.283-.1c-.082-.013-.345-.045-.315.106l.1,1.011c.006.181.005.362,0,.544a2.133,2.133,0,0,0-.285.156.5.5,0,0,0-.279.4,4.012,4.012,0,0,0,.345,1.284A7.925,7.925,0,0,1,35.93,38.5a15.723,15.723,0,0,1-2.013,3.019A6.179,6.179,0,0,0,37.043,37.7c.017-.061.033-.121.049-.182.074,0,.151-.007.23-.016.052.451.086.9.1,1.359a25.383,25.383,0,0,1-.1,3.828,7.036,7.036,0,0,0,.831-2.409,13.851,13.851,0,0,0-.026-2.2c-.022-.255-.052-.508-.087-.762.148-.068.246-.148.248-.232a3.283,3.283,0,0,0-.4-1.925.487.487,0,0,0-.336-.179Zm5.365-11.455c-.025-.044-.085-.105-.046.03.187.657.877,3.1-.475,2.6-.507-.175-.658-1.1-.7-1.795a.231.231,0,0,0-.423-.115c-1.649,2.452-3.735,3.621-7.013,5.834-2.307,1.557-4.758,1.176-5.659,1.438a.615.615,0,0,0-.432.9.813.813,0,0,0,.682.48,2.761,2.761,0,0,0,1.82-.67c.18-.144.543-.123,1.141-.233a9.621,9.621,0,0,0,4.334-2.276c1.49-1.2,3.377-2.782,4.32-3.62.491-.437.763-.165,1.219.3,1.747,1.771-.027,3.449-.817,4.1l-.148.124c-.08.068-.019.21.082.183,2.324-.618,3.862-4.255,2.114-7.285Zm-6.016,8.79a5.55,5.55,0,0,0,2.791-.571c.161-.084.829-.367.771-.59s-.524-.087-.674-.048a8.44,8.44,0,0,0-1.119.636,2.938,2.938,0,0,1-.684.239,7.764,7.764,0,0,1-2.123-.064,5.8,5.8,0,0,0-4.458,2.009q-.407.407-.785.843c-.029.033-.549.576-.312.6a13.215,13.215,0,0,1,4.426-3,6.471,6.471,0,0,1,2.167-.055Zm5.965-10.983A1.64,1.64,0,0,0,43,21.7a.386.386,0,0,0,.15.149.111.111,0,0,0,.157-.06.773.773,0,0,1,.033-.078c.874-1.768-.232-2.586-1.333-2.962a5.1,5.1,0,0,0-2.354-.2,18.81,18.81,0,0,1-4.719.172.09.09,0,0,0-.026.178,19.413,19.413,0,0,0,3.3.165.09.09,0,0,1,.057.162c-1.308.995-1.823,1.8-.888,2.631.988.88,2.939.8,2.56-.615-.332-1.241.582-1.707,1.091-.8.39.695-.4,1.447-.79,1.763a.4.4,0,0,0-.094.531,2.144,2.144,0,0,0,1.439.645c.967,0,1.66-.574,1.693-.987a.089.089,0,0,0-.03-.073,2.238,2.238,0,0,1-.687-1.192c-.311-1.38.423-1.355.647-.979a.425.425,0,0,1-.132.533.706.706,0,0,0-.2.655ZM2.1,19.07l1.385,3.7L2.1,26.623H5.777a22.647,22.647,0,0,1,0-7.553Zm51.239,0H49.661a22.646,22.646,0,0,1,0,7.553h3.677l-1.385-3.7ZM27.719,45.536a23.443,23.443,0,0,1-3.059-.2l-.246-.033,3.306,3.306L31.025,45.3l-.246.033a23.443,23.443,0,0,1-3.059.2Z" transform="translate(-2.1 -1.5)"/>
</svg>
