<svg xmlns="http://www.w3.org/2000/svg" width="51" height="51" viewBox="0 0 51 51">
  <g id="_001-phone-call" data-name="001-phone-call" transform="translate(1.5 -3.224)">
    <g id="Group_702" data-name="Group 702" transform="translate(11.5 16.224)">
      <g id="Group_701" data-name="Group 701">
        <path id="Path_229" data-name="Path 229" d="M124.462,120.189l-3.849-3.835a2.239,2.239,0,0,0-3.167,0l0,0-2.205,2.205a.486.486,0,0,1-.623.055,25.419,25.419,0,0,1-5.938-5.828.479.479,0,0,1,.048-.623l2.26-2.26a2.239,2.239,0,0,0,0-3.164l-3.849-3.849a2.294,2.294,0,0,0-3.171,0l-1.219,1.219a6.849,6.849,0,0,0-1.7,6.986,20.544,20.544,0,0,0,2.507,5.082,26.639,26.639,0,0,0,7.691,7.554,19.605,19.605,0,0,0,5.7,2.534,6.6,6.6,0,0,0,1.589.192,6.931,6.931,0,0,0,4.883-2.055l1.048-1.048A2.239,2.239,0,0,0,124.462,120.189Zm-.97,2.23,0,0,.007-.021-1.048,1.048a5.479,5.479,0,0,1-5.171,1.479,18.206,18.206,0,0,1-5.287-2.37,25.321,25.321,0,0,1-7.287-7.143,19.174,19.174,0,0,1-2.342-4.739,5.479,5.479,0,0,1,1.37-5.6l1.219-1.219a.87.87,0,0,1,1.23,0l0,0,3.849,3.849a.87.87,0,0,1,0,1.23l0,0-2.26,2.26a1.842,1.842,0,0,0-.192,2.4,26.978,26.978,0,0,0,6.266,6.15,1.856,1.856,0,0,0,2.37-.205l2.185-2.219a.87.87,0,0,1,1.23,0l0,0,3.856,3.863A.87.87,0,0,1,123.493,122.419Z" transform="translate(-100.712 -102.253)" fill="#fff"/>
      </g>
    </g>
    <g id="Ellipse_21" data-name="Ellipse 21" transform="translate(-1.5 3.224)" fill="none" stroke="#fff" stroke-width="1">
      <circle cx="25.5" cy="25.5" r="25.5" stroke="none"/>
      <circle cx="25.5" cy="25.5" r="25" fill="none"/>
    </g>
  </g>
</svg>
