<svg xmlns="http://www.w3.org/2000/svg" xmlns:xlink="http://www.w3.org/1999/xlink" width="802" height="795" viewBox="0 0 802 795">
  <defs>
    <clipPath id="clip-path">
      <rect id="Rectangle_79" data-name="Rectangle 79" width="802" height="795" transform="translate(0 5565)" fill="#fff"/>
    </clipPath>
  </defs>
  <g id="Mask_Group_2" data-name="Mask Group 2" transform="translate(0 -5565)" clip-path="url(#clip-path)">
    <path id="_1000_F_209900544_C7P7rrfxaSFNn29qHnn4teqH7SvXPCwS" data-name="1000_F_209900544_C7P7rrfxaSFNn29qHnn4teqH7SvXPCwS" d="M780.582,957.261c23.054,0,51.263-15.294,61.515-34.552l215.284-371.583c11.536-20.392,11.536-50.979,0-71.371L842.1,108.172C831.845,88.913,803.636,73.62,780.582,73.62h-613.2c-21.77,0-49.9,15.293-61.42,34.552L-109.472,479.755c-10.2,20.391-10.2,50.979,0,71.371L105.963,922.709c11.517,19.258,39.65,34.552,61.42,34.552Z" transform="translate(-264.457 5459.06)"/>
    <path id="_1000_F_209900544_C7P7rrfxaSFNn29qHnn4teqH7SvXPCwS-2" data-name="1000_F_209900544_C7P7rrfxaSFNn29qHnn4teqH7SvXPCwS" d="M780.582,957.261c23.054,0,51.263-15.294,61.515-34.552l215.284-371.583c11.536-20.392,11.536-50.979,0-71.371L842.1,108.172C831.845,88.913,803.636,73.62,780.582,73.62h-613.2c-21.77,0-49.9,15.293-61.42,34.552L-109.472,479.755c-10.2,20.391-10.2,50.979,0,71.371L105.963,922.709c11.517,19.258,39.65,34.552,61.42,34.552Z" transform="translate(-304.457 5459.06)" fill="none" stroke="#fff" stroke-linejoin="round" stroke-width="3"/>
    <path id="_1000_F_209900544_C7P7rrfxaSFNn29qHnn4teqH7SvXPCwS-3" data-name="1000_F_209900544_C7P7rrfxaSFNn29qHnn4teqH7SvXPCwS" d="M780.582,957.261c23.054,0,51.263-15.294,61.515-34.552l215.284-371.583c11.536-20.392,11.536-50.979,0-71.371L842.1,108.172C831.845,88.913,803.636,73.62,780.582,73.62h-613.2c-21.77,0-49.9,15.293-61.42,34.552L-109.472,479.755c-10.2,20.391-10.2,50.979,0,71.371L105.963,922.709c11.517,19.258,39.65,34.552,61.42,34.552Z" transform="translate(-340.457 5459.06)" fill="none" stroke="#fff" stroke-linejoin="round" stroke-width="2"/>
    <path id="_1000_F_209900544_C7P7rrfxaSFNn29qHnn4teqH7SvXPCwS-4" data-name="1000_F_209900544_C7P7rrfxaSFNn29qHnn4teqH7SvXPCwS" d="M780.582,957.261c23.054,0,51.263-15.294,61.515-34.552l215.284-371.583c11.536-20.392,11.536-50.979,0-71.371L842.1,108.172C831.845,88.913,803.636,73.62,780.582,73.62h-613.2c-21.77,0-49.9,15.293-61.42,34.552L-109.472,479.755c-10.2,20.391-10.2,50.979,0,71.371L105.963,922.709c11.517,19.258,39.65,34.552,61.42,34.552Z" transform="translate(-376.457 5459.06)" fill="none" stroke="#fff" stroke-linejoin="round" stroke-width="1"/>
    <path id="_1000_F_209900544_C7P7rrfxaSFNn29qHnn4teqH7SvXPCwS-5" data-name="1000_F_209900544_C7P7rrfxaSFNn29qHnn4teqH7SvXPCwS" d="M780.582,957.261c23.054,0,51.263-15.294,61.515-34.552l215.284-371.583c11.536-20.392,11.536-50.979,0-71.371L842.1,108.172C831.845,88.913,803.636,73.62,780.582,73.62h-613.2c-21.77,0-49.9,15.293-61.42,34.552L-109.472,479.755c-10.2,20.391-10.2,50.979,0,71.371L105.963,922.709c11.517,19.258,39.65,34.552,61.42,34.552Z" transform="translate(-415.457 5459.06)" fill="none" stroke="#fff" stroke-linejoin="round" stroke-width="0.5"/>
  </g>
</svg>
